REM DIRINDEX 1\5,1\2\6,1\2\7,1\3\8,1\3\9,1\4\10,1\4\11,1\4\12
REM DIRNAME cjc026,folder01,folder02,folder03,folder04,folder05,folder06,folder07,folder08,folder09,folder10,folder11
TITLE ""
FILE "EJE_DB3000_5th_4B_26.mp3" MP3
  TRACK 01 AUDIO
    TITLE "0:"
    INDEX 01 00:00:00
  TRACK 02 AUDIO
    TITLE "10:cjc026_09165"
    INDEX 01 00:00:08
  TRACK 03 AUDIO
    TITLE "0:"
    INDEX 01 00:01:30
  TRACK 04 AUDIO
    TITLE "11:cjc026_09166"
    INDEX 01 00:01:65
  TRACK 05 AUDIO
    TITLE "0:"
    INDEX 01 00:03:26
  TRACK 06 AUDIO
    TITLE "12:cjc026_09167"
    INDEX 01 00:03:63
  TRACK 07 AUDIO
    TITLE "0:"
    INDEX 01 00:05:08
  TRACK 08 AUDIO
    TITLE "10:cjc026_09168"
    INDEX 01 00:05:43
  TRACK 09 AUDIO
    TITLE "0:"
    INDEX 01 00:06:60
  TRACK 10 AUDIO
    TITLE "11:cjc026_09169"
    INDEX 01 00:07:17
  TRACK 11 AUDIO
    TITLE "0:"
    INDEX 01 00:08:26
  TRACK 12 AUDIO
    TITLE "12:cjc026_09170"
    INDEX 01 00:08:58
  TRACK 13 AUDIO
    TITLE "0:"
    INDEX 01 00:09:72
  TRACK 14 AUDIO
    TITLE "10:cjc026_09171"
    INDEX 01 00:10:33
  TRACK 15 AUDIO
    TITLE "0:"
    INDEX 01 00:12:01
  TRACK 16 AUDIO
    TITLE "11:cjc026_09172"
    INDEX 01 00:12:34
  TRACK 17 AUDIO
    TITLE "0:"
    INDEX 01 00:13:53
  TRACK 18 AUDIO
    TITLE "12:cjc026_09173"
    INDEX 01 00:14:13
  TRACK 19 AUDIO
    TITLE "0:"
    INDEX 01 00:15:60
  TRACK 20 AUDIO
    TITLE "10:cjc026_09174"
    INDEX 01 00:16:17
  TRACK 21 AUDIO
    TITLE "0:"
    INDEX 01 00:17:42
  TRACK 22 AUDIO
    TITLE "11:cjc026_09175"
    INDEX 01 00:18:02
  TRACK 23 AUDIO
    TITLE "0:"
    INDEX 01 00:19:54
  TRACK 24 AUDIO
    TITLE "12:cjc026_09176"
    INDEX 01 00:20:17
  TRACK 25 AUDIO
    TITLE "0:"
    INDEX 01 00:21:42
  TRACK 26 AUDIO
    TITLE "10:cjc026_09177"
    INDEX 01 00:22:02
  TRACK 27 AUDIO
    TITLE "0:"
    INDEX 01 00:23:38
  TRACK 28 AUDIO
    TITLE "11:cjc026_09178"
    INDEX 01 00:23:73
  TRACK 29 AUDIO
    TITLE "0:"
    INDEX 01 00:25:06
  TRACK 30 AUDIO
    TITLE "12:cjc026_09179"
    INDEX 01 00:25:42
  TRACK 31 AUDIO
    TITLE "0:"
    INDEX 01 00:27:02
  TRACK 32 AUDIO
    TITLE "10:cjc026_09180"
    INDEX 01 00:27:37
  TRACK 33 AUDIO
    TITLE "0:"
    INDEX 01 00:28:70
  TRACK 34 AUDIO
    TITLE "11:cjc026_09181"
    INDEX 01 00:29:30
  TRACK 35 AUDIO
    TITLE "0:"
    INDEX 01 00:30:58
  TRACK 36 AUDIO
    TITLE "12:cjc026_09182"
    INDEX 01 00:31:21
  TRACK 37 AUDIO
    TITLE "0:"
    INDEX 01 00:32:54
  TRACK 38 AUDIO
    TITLE "10:cjc026_09183"
    INDEX 01 00:33:14
  TRACK 39 AUDIO
    TITLE "0:"
    INDEX 01 00:34:47
  TRACK 40 AUDIO
    TITLE "11:cjc026_09184"
    INDEX 01 00:35:07
  TRACK 41 AUDIO
    TITLE "0:"
    INDEX 01 00:36:56
  TRACK 42 AUDIO
    TITLE "12:cjc026_09185"
    INDEX 01 00:37:19
  TRACK 43 AUDIO
    TITLE "0:"
    INDEX 01 00:38:52
  TRACK 44 AUDIO
    TITLE "10:cjc026_09186"
    INDEX 01 00:39:15
  TRACK 45 AUDIO
    TITLE "0:"
    INDEX 01 00:40:42
  TRACK 46 AUDIO
    TITLE "11:cjc026_09187"
    INDEX 01 00:41:03
  TRACK 47 AUDIO
    TITLE "0:"
    INDEX 01 00:42:46
  TRACK 48 AUDIO
    TITLE "12:cjc026_09188"
    INDEX 01 00:43:09
  TRACK 49 AUDIO
    TITLE "0:"
    INDEX 01 00:44:34
  TRACK 50 AUDIO
    TITLE "10:cjc026_09189"
    INDEX 01 00:44:72
  TRACK 51 AUDIO
    TITLE "0:"
    INDEX 01 00:46:24
  TRACK 52 AUDIO
    TITLE "11:cjc026_09190"
    INDEX 01 00:46:60
  TRACK 53 AUDIO
    TITLE "0:"
    INDEX 01 00:48:04
  TRACK 54 AUDIO
    TITLE "12:cjc026_09191"
    INDEX 01 00:48:39
  TRACK 55 AUDIO
    TITLE "0:"
    INDEX 01 00:49:67
  TRACK 56 AUDIO
    TITLE "10:cjc026_09192"
    INDEX 01 00:50:27
  TRACK 57 AUDIO
    TITLE "0:"
    INDEX 01 00:51:49
  TRACK 58 AUDIO
    TITLE "11:cjc026_09193"
    INDEX 01 00:52:09
  TRACK 59 AUDIO
    TITLE "0:"
    INDEX 01 00:53:29
  TRACK 60 AUDIO
    TITLE "12:cjc026_09194"
    INDEX 01 00:53:64
  TRACK 61 AUDIO
    TITLE "0:"
    INDEX 01 00:55:14
  TRACK 62 AUDIO
    TITLE "10:cjc026_09195"
    INDEX 01 00:55:49
  TRACK 63 AUDIO
    TITLE "0:"
    INDEX 01 00:56:71
  TRACK 64 AUDIO
    TITLE "11:cjc026_09196"
    INDEX 01 00:57:31
  TRACK 65 AUDIO
    TITLE "0:"
    INDEX 01 00:59:65
  TRACK 66 AUDIO
    TITLE "12:cjc026_09197"
    INDEX 01 01:00:27
  TRACK 67 AUDIO
    TITLE "0:"
    INDEX 01 01:01:50
  TRACK 68 AUDIO
    TITLE "10:cjc026_09198"
    INDEX 01 01:02:10
  TRACK 69 AUDIO
    TITLE "0:"
    INDEX 01 01:03:18
  TRACK 70 AUDIO
    TITLE "11:cjc026_09199"
    INDEX 01 01:03:56
  TRACK 71 AUDIO
    TITLE "0:"
    INDEX 01 01:04:73
  TRACK 72 AUDIO
    TITLE "12:cjc026_09200"
    INDEX 01 01:05:39
  TRACK 73 AUDIO
    TITLE "0:"
    INDEX 01 01:06:47
  TRACK 74 AUDIO
    TITLE "10:cjc026_09201"
    INDEX 01 01:07:10
  TRACK 75 AUDIO
    TITLE "0:"
    INDEX 01 01:08:35
  TRACK 76 AUDIO
    TITLE "11:cjc026_09202"
    INDEX 01 01:08:70
  TRACK 77 AUDIO
    TITLE "0:"
    INDEX 01 01:10:36
  TRACK 78 AUDIO
    TITLE "12:cjc026_09203"
    INDEX 01 01:10:71
  TRACK 79 AUDIO
    TITLE "0:"
    INDEX 01 01:12:24
  TRACK 80 AUDIO
    TITLE "10:cjc026_09204"
    INDEX 01 01:12:62
  TRACK 81 AUDIO
    TITLE "0:"
    INDEX 01 01:14:30
  TRACK 82 AUDIO
    TITLE "11:cjc026_09205"
    INDEX 01 01:14:66
  TRACK 83 AUDIO
    TITLE "0:"
    INDEX 01 01:16:23
  TRACK 84 AUDIO
    TITLE "12:cjc026_09206"
    INDEX 01 01:16:67
  TRACK 85 AUDIO
    TITLE "0:"
    INDEX 01 01:18:36
